<svg xmlns="http://www.w3.org/2000/svg" version="1.1" xmlns:xlink="http://www.w3.org/1999/xlink" width="100" height="100"><svg xmlns="http://www.w3.org/2000/svg" viewBox="0 0 100 100">
  <!-- Background -->
  <rect x="6" y="6" width="88" height="88" rx="18" fill="#0D5AA8"></rect>
  <!-- Subtle highlight -->
  <path d="M24 18h52a18 18 0 0 1 18 18v2c-8-10-20-14-34-14H24c-6 0-12 1-18 4v-2a18 18 0 0 1 18-18z" fill="#FFFFFF" opacity="0.10"></path>

  <!-- W letter -->
  <path d="M25 30l9 40h10l6-24 6 24h10l9-40h-10l-5 26-6-26H45l-6 26-5-26H25z" fill="#FFFFFF"></path>

  <!-- Tiny tile notch (keeps it 'game tile'-ish) -->
  <rect x="12" y="12" width="76" height="76" rx="14" fill="none" stroke="#FFFFFF" opacity="0.12" stroke-width="2"></rect>
</svg><style>@media (prefers-color-scheme: light) { :root { filter: none; } }
@media (prefers-color-scheme: dark) { :root { filter: none; } }
</style></svg>